<?xml version="1.0" encoding="utf-8"?>
<!-- Generator: Adobe Illustrator 25.2.1, SVG Export Plug-In . SVG Version: 6.00 Build 0)  -->
<svg version="1.1" id="Capa_1" xmlns="http://www.w3.org/2000/svg" xmlns:xlink="http://www.w3.org/1999/xlink" x="0px" y="0px"
	 viewBox="0 0 435.2 130.7" style="enable-background:new 0 0 435.2 130.7;" xml:space="preserve">
<style type="text/css">
	.st0{fill:url(#SVGID_1_);}
	.st1{fill:#3F3F3F;}
	.st2{display:none;}
	.st3{display:inline;}
	.st4{fill:#FFFFFF;}
	.st5{fill:url(#SVGID_2_);}
</style>
<g>
	
		<linearGradient id="SVGID_1_" gradientUnits="userSpaceOnUse" x1="-0.4661" y1="1020.0872" x2="139.6383" y2="1020.0872" gradientTransform="matrix(1 0 0 1 0 -948)">
		<stop  offset="0" style="stop-color:#B12E24"/>
		<stop  offset="9.000000e-02" style="stop-color:#B63625"/>
		<stop  offset="0.18" style="stop-color:#BC3F25"/>
		<stop  offset="0.27" style="stop-color:#C14825"/>
		<stop  offset="0.36" style="stop-color:#C54F25"/>
		<stop  offset="0.45" style="stop-color:#CB5825"/>
		<stop  offset="0.54" style="stop-color:#CF5E25"/>
		<stop  offset="0.63" style="stop-color:#D36424"/>
		<stop  offset="0.72" style="stop-color:#D86C24"/>
		<stop  offset="0.81" style="stop-color:#DC7323"/>
		<stop  offset="0.9" style="stop-color:#E58022"/>
		<stop  offset="1" style="stop-color:#F3951C"/>
	</linearGradient>
	<path class="st0" d="M139.8,49.4c0-10.2-8.3-18.5-18.5-18.5s-18.5,8.3-18.5,18.5c0,2.6,0.5,5,1.5,7.2c2.3,5.7,4.1,14.3,5.1,24.6
		c-3.2-4.4-6.4-9.2-9.6-14.5c-8.4-14-14-27.4-15.8-36.5c-0.2-4.6-2.3-9.1-5.9-12.3c-0.1-0.1-0.3-0.2-0.4-0.4
		c-0.3-0.2-0.5-0.5-0.8-0.7c-5.6-4.2-13.3-4.8-19.7-1c-5,3-8,8.1-8.5,13.5c-1.5,9-7.3,22.9-16,37.4c-9,15.1-18.8,27-26.1,32.4l0,0
		c-1.7,1.3-3.2,3-4.4,5c-5,8.4-2.3,19.3,6.2,24.3c8.4,5,19.3,2.3,24.3-6.2c1.4-2.3,2.1-4.8,2.4-7.2c1.5-9,7.3-22.9,16-37.4
		c5-8.4,10.3-15.9,15.3-21.8c4.9,5.9,10.2,13.3,15.2,21.7c8.8,14.8,14.7,29,16,38c0.3,2.3,1.1,4.6,2.3,6.7c5,8.4,15.9,11.2,24.4,6.2
		c5.6-3.4,8.7-9.4,8.6-15.5l0,0c-0.3-4.4-0.5-9-0.5-13.8c0-17.5,2.2-32.9,5.6-41.8C139.1,55,139.8,52.2,139.8,49.4z"/>
	<g>
		<ellipse class="st1" cx="65.9" cy="98.9" rx="13.4" ry="13.4"/>
		<ellipse class="st1" cx="120.8" cy="13.4" rx="13.4" ry="13.4"/>
	</g>
	<g>
		<path class="st1" d="M180.9,118.5v12.2h-8.8c-11,0-19.7-8.4-19.7-19V35.5H166v27.2h15V75h-15v36.7c0,3.9,2.6,6.8,6.1,6.8H180.9
			L180.9,118.5z"/>
		<path class="st1" d="M238,130.7h-22.2c-14.7,0-26.8-12-26.8-26.5V81.8c0-10.6,9.1-19,20-19h12.6c11.6,0,19,8.2,19,19
			c0,10.2-7.9,16.3-16.3,18.6l-21.8,5.8c0.3,7.1,6,12.2,13.2,12.2H238V130.7L238,130.7z M202.7,93.2l19-4.6c2.9-0.7,5.4-3.7,5.4-6.8
			c0-3.9-3.3-6.8-6.8-6.8H209c-3.5,0-6.4,2.9-6.4,6.8v11.4H202.7z"/>
		<path class="st1" d="M267.9,130.7h-13.6v-68h9.5l4.1,4.8c3.4-2.7,8-4.8,12.9-4.8h6.1c10.6,0,19,8.4,19,19v48.9h-13.6V80.4
			c0-3.1-2.2-5.4-5.4-5.4h-6.1c-7.3,0-12.9,5.6-12.9,12.9V130.7L267.9,130.7z"/>
		<path class="st1" d="M369.9,130.7h-22.2c-14.7,0-26.8-12-26.8-26.5V81.8c0-10.6,9.1-19,20-19h12.6c11.6,0,19,8.2,19,19
			c0,10.2-7.9,16.3-16.3,18.6l-21.8,5.8c0.3,7.1,6,12.2,13.2,12.2h22.2L369.9,130.7L369.9,130.7z M334.6,93.2l19-4.6
			c2.9-0.7,5.4-3.7,5.4-6.8c0-3.9-3.3-6.8-6.8-6.8H341c-3.5,0-6.4,2.9-6.4,6.8V93.2z"/>
		<path class="st1" d="M388.9,75V62.7h27.2c10.6,0,19,8.4,19,19v48.9h-32.6c-10.2,0-19-7.5-19-19c0-10.9,8.2-16.9,16-18.8l22-5.4
			v-7.1c0-3.1-2.2-5.4-5.4-5.4L388.9,75L388.9,75z M403.9,118.5h17.7v-18.3l-18.9,4.5c-3.5,0.8-5.6,3.7-5.6,7.1
			C397.1,115.6,400.5,118.5,403.9,118.5z"/>
	</g>
</g>
<g class="st2">
	<g class="st3">
		<ellipse class="st4" cx="66.1" cy="98.8" rx="13.4" ry="13.4"/>
		
			<linearGradient id="SVGID_2_" gradientUnits="userSpaceOnUse" x1="33.9904" y1="1095.707" x2="120.9797" y2="979.3587" gradientTransform="matrix(1 0 0 1 0 -948)">
			<stop  offset="0" style="stop-color:#03597B"/>
			<stop  offset="0.5056" style="stop-color:#1088B1"/>
			<stop  offset="1" style="stop-color:#35BDEF"/>
		</linearGradient>
		<path class="st5" d="M139.2,49.6c0-10.1-8.2-18.4-18.3-18.4s-18.3,8.2-18.3,18.4c0,2.5,0.5,5,1.4,7.2c2.3,5.6,4.1,14.2,5,24.4
			c-3.2-4.3-6.4-9.2-9.5-14.4c-8.3-13.9-13.9-27.2-15.6-36.1c-0.2-4.6-2.3-9-5.9-12.2c-0.1-0.1-0.3-0.2-0.4-0.4
			c-0.3-0.2-0.5-0.5-0.8-0.7c-5.5-4.1-13.2-4.8-19.5-1c-5,3-7.9,8-8.5,13.4c-1.5,8.9-7.2,22.7-15.8,37.1C24.1,81.8,14.3,93.7,7.1,99
			l0,0c-1.7,1.3-3.2,3-4.4,4.9c-5,8.3-2.2,19.1,6.1,24.1s19.1,2.2,24.1-6.1c1.3-2.3,2.1-4.7,2.4-7.2c1.5-8.9,7.2-22.7,15.8-37.1
			c5-8.4,10.2-15.8,15.2-21.6c4.9,5.8,10.1,13.2,15.1,21.5c8.8,14.7,14.5,28.8,15.9,37.6c0.3,2.3,1.1,4.5,2.3,6.6
			c5,8.4,15.8,11.1,24.1,6.1c5.6-3.3,8.7-9.3,8.6-15.4l0,0c-0.3-4.3-0.5-8.9-0.5-13.7c0-17.3,2.2-32.6,5.6-41.4
			C138.6,55.1,139.2,52.4,139.2,49.6z"/>
		<ellipse class="st4" cx="120.9" cy="13.4" rx="13.4" ry="13.4"/>
	</g>
	<g class="st3">
		<path class="st4" d="M180.9,118.3v12.2h-8.8c-11,0-19.7-8.4-19.7-19v-76H166v27.1h14.9v12.2H166v36.7c0,3.9,2.6,6.8,6.1,6.8H180.9
			L180.9,118.3z"/>
		<path class="st4" d="M237.9,130.5h-22.1c-14.7,0-26.7-11.9-26.7-26.5V81.7c0-10.6,9.1-19,20-19h12.6c11.5,0,19,8.2,19,19
			c0,10.2-7.9,16.3-16.3,18.6l-21.7,5.8c0.3,7.1,6,12.2,13.2,12.2H238L237.9,130.5L237.9,130.5z M202.6,93.1l19-4.6
			c2.9-0.7,5.4-3.7,5.4-6.8c0-3.9-3.3-6.8-6.8-6.8H209c-3.5,0-6.4,2.8-6.4,6.8V93.1L202.6,93.1z"/>
		<path class="st4" d="M267.8,130.5h-13.6V62.7h9.5l4.1,4.8c3.4-2.7,8-4.8,12.9-4.8h6.1c10.6,0,19,8.4,19,19v48.9h-13.6V80.3
			c0-3.1-2.2-5.4-5.4-5.4h-6.1c-7.3,0-12.9,5.6-12.9,12.9V130.5z"/>
		<path class="st4" d="M369.6,130.5h-22.1c-14.7,0-26.7-11.9-26.7-26.5V81.7c0-10.6,9.1-19,20-19h12.6c11.5,0,19,8.2,19,19
			c0,10.2-7.9,16.3-16.3,18.6l-21.7,5.8c0.3,7.1,6,12.2,13.2,12.2h22.1L369.6,130.5L369.6,130.5z M334.3,93.1l19-4.6
			c2.9-0.7,5.4-3.7,5.4-6.8c0-3.9-3.3-6.8-6.8-6.8h-11.3c-3.5,0-6.4,2.8-6.4,6.8L334.3,93.1L334.3,93.1z"/>
		<path class="st4" d="M388.6,74.9V62.7h27.1c10.6,0,19,8.4,19,19v48.9h-32.6c-10.2,0-19-7.5-19-19c0-10.9,8.1-16.8,16-18.7l22-5.4
			v-7.1c0-3.1-2.2-5.4-5.4-5.4L388.6,74.9L388.6,74.9z M403.5,118.3h17.6V100l-18.9,4.5c-3.5,0.8-5.6,3.7-5.6,7.1
			C396.8,115.5,400.2,118.3,403.5,118.3z"/>
	</g>
</g>
</svg>
