<?xml version="1.0" encoding="utf-8"?>
<!-- Generator: Adobe Illustrator 25.2.1, SVG Export Plug-In . SVG Version: 6.00 Build 0)  -->
<svg version="1.1" id="Capa_1" xmlns="http://www.w3.org/2000/svg" xmlns:xlink="http://www.w3.org/1999/xlink" x="0px" y="0px"
	 viewBox="0 0 140.1 130.9" style="enable-background:new 0 0 140.1 130.9;" xml:space="preserve">
<style type="text/css">
	.st0{opacity:0.5;fill:#3F3F3F;}
	.st1{fill:#3F3F3F;}
</style>
<path class="st0" d="M99.78,58.64c0-4.33-3.52-7.85-7.85-7.85c-4.33,0-7.85,3.52-7.85,7.85c0,1.1,0.21,2.12,0.64,3.06
	c0.98,2.42,1.74,6.07,2.16,10.44c-1.36-1.87-2.72-3.9-4.07-6.15c-3.56-5.94-5.94-11.63-6.7-15.49c-0.08-1.95-0.98-3.86-2.5-5.22
	c-0.04-0.04-0.13-0.08-0.17-0.17c-0.13-0.08-0.21-0.21-0.34-0.3c-2.38-1.78-5.64-2.04-8.36-0.42c-2.12,1.27-3.39,3.44-3.61,5.73
	c-0.64,3.82-3.1,9.72-6.79,15.87c-3.82,6.41-7.98,11.46-11.08,13.75l0,0c-0.72,0.55-1.36,1.27-1.87,2.12
	c-2.12,3.56-0.98,8.19,2.63,10.31c3.56,2.12,8.19,0.98,10.31-2.63c0.59-0.98,0.89-2.04,1.02-3.06c0.64-3.82,3.1-9.72,6.79-15.87
	c2.12-3.56,4.37-6.75,6.49-9.25c2.08,2.5,4.33,5.64,6.45,9.21c3.73,6.28,6.24,12.31,6.79,16.13c0.13,0.98,0.47,1.95,0.98,2.84
	c2.12,3.56,6.75,4.75,10.35,2.63c2.38-1.44,3.69-3.99,3.65-6.58l0,0c-0.13-1.87-0.21-3.82-0.21-5.86c0-7.43,0.93-13.96,2.38-17.74
	C99.48,61.02,99.78,59.83,99.78,58.64z"/>
<g>
	<ellipse class="st1" cx="68.42" cy="79.65" rx="5.69" ry="5.69"/>
	<ellipse class="st1" cx="91.72" cy="43.36" rx="5.69" ry="5.69"/>
</g>
</svg>
