<?xml version="1.0" encoding="utf-8"?>
<!-- Generator: Adobe Illustrator 25.2.1, SVG Export Plug-In . SVG Version: 6.00 Build 0)  -->
<svg version="1.1"
	 id="Capa_1" xmlns:cc="http://creativecommons.org/ns#" xmlns:dc="http://purl.org/dc/elements/1.1/" xmlns:rdf="http://www.w3.org/1999/02/22-rdf-syntax-ns#"
	 xmlns="http://www.w3.org/2000/svg" xmlns:xlink="http://www.w3.org/1999/xlink" x="0px" y="0px" viewBox="0 0 480 480"
	 style="enable-background:new 0 0 480 480;" xml:space="preserve">
<style type="text/css">
	.st0{display:none;fill:#1B1A19;}
	.st1{display:none;}
	.st2{display:inline;fill:#FFFFFF;}
	.st3{display:inline;}
	.st4{fill:#1B1A19;}
	.st5{fill:#FBF8F8;}
	.st6{fill:#740000;}
	.st7{fill:#910000;}
	.st8{fill:#760404;}
</style>
<rect y="0" class="st0" width="480" height="480"/>
<g transform="translate(0 -572.36)" class="st1">
	<path class="st2" d="M139,677.7H341c18.6,0,33.7,15.1,33.7,33.7v201.9c0,18.6-15.1,33.7-33.7,33.7H139c-18.6,0-33.7-15.1-33.7-33.7
		V711.4C105.4,692.8,120.5,677.7,139,677.7z"/>
	<g transform="matrix(8.545 0 0 8.545 -786.19 -1949.8)" class="st3">
		<path class="st4" d="M110.7,322c0-1.4-1.1-2.6-2.6-2.6h-3.8v1.8h3.8c0.5,0,0.9,0.4,0.9,0.8v2.5c0,0.5-0.4,0.9-0.9,0.9h-3.8v1.7
			h3.8c1.4,0,2.6-1.2,2.6-2.6l0-1.2c5.9,0.1,7.7,1.6,9.5,3.3c1.8,1.6,3.9,3.3,9.2,3.3l0,0.6c0,1.4,1.2,2.6,2.6,2.6h3.9v-1.8H132
			c-0.5,0-0.8-0.3-0.8-0.8v-2.5c0-0.5,0.4-0.9,0.8-0.9h3.9v-1.7H132c-1.4,0-2.6,1.1-2.6,2.6l0,0.6c-5,0-6.4-1.4-8.3-3
			c-1.6-1.4-3.4-2.9-7.4-3.4c0,0,0.1-0.1,0.1-0.1c0.8-0.7,1.2-1.6,1.6-2.3c0.4-0.7,0.8-1.4,1.4-1.8c0.5-0.4,1.2-0.6,2.4-0.7l0,0.6
			c0,1.4,1.2,2.7,2.6,2.7h10.4c1.4,0,2.6-1.2,2.6-2.7v-2.5c0-1.4-1.2-2.6-2.6-2.6h-10.4c-1.4,0-2.6,1.2-2.6,2.6l0,0.6
			c-1.4,0.1-2.4,0.4-3.1,0.9c-0.9,0.6-1.4,1.5-1.8,2.3c-0.4,0.8-0.8,1.5-1.3,2C112.4,321.6,111.7,321.9,110.7,322L110.7,322z
			 M121.8,314.6h10.4c0.5,0,0.8,0.4,0.8,0.8v2.5c0,0.5-0.3,0.8-0.8,0.8h-10.4c-0.5,0-0.9-0.4-0.9-0.8v-2.5
			C120.9,314.9,121.3,314.6,121.8,314.6z"/>
	</g>
</g>
<g>
	<path class="st5" d="M94,240.1c0-27.2,0-54.3,0-81.5c0-1.9,0.7-3,2.3-3.9c40.2-23.1,80.3-46.3,120.5-69.4
		c7.1-4.1,14.2-8.2,21.3-12.3c1.5-0.8,2.7-0.7,4.1,0.1c26.6,15.4,53.2,30.7,79.8,46.1c20.6,11.9,41.3,23.8,61.9,35.7
		c1.5,0.8,2.1,1.9,2.1,3.6c0,54.5,0,109,0,163.4c0,1.7-0.6,2.7-2,3.6c-47.3,27.3-94.5,54.6-141.8,81.9c-1.5,0.8-2.7,0.8-4.2,0
		c-35.7-20.6-71.5-41.2-107.2-61.8c-11.6-6.7-23.2-13.4-34.8-20c-1.4-0.8-2-1.9-2-3.4C94,294.7,94,267.4,94,240.1z M174.5,218.3
		L174.5,218.3c0.5,1.2,0.9,2.4,1.2,3.6c0.2,0.6-0.1,1.6,0.6,1.8c0.6,0.2,1.4-0.2,2.1-0.3c0.3,0,0.7-0.1,1-0.2c4-0.8,7.8-2.2,10.8-5
		c2.6-2.4,4.4-5.3,6.1-8.3c2.4-4,4.4-8.3,7.1-12.1c4.5-6.4,10.2-11.1,18-13.1c4.1-1.1,8.4-1.7,12.6-1.9c0.8,0,1.1-0.3,1-1.1
		c-0.1-0.9,0-1.8,0-2.6c0.1-9.7,7.7-17.5,17.5-17.5c13.2-0.1,26.3,0,39.5,0c11.1,0,22.1,0,33.2,0c2.7,0,5.2,0.7,7.6,1.8
		c3.3,1.5,5.8,3.8,7.9,6.7c0.1,0.1,0.1,0.2,0.2,0.3c0,0.1,0.1,0.1,0.1,0.2c0.1,0.1,0.1,0.2,0.2,0.3c0,0.1,0.1,0.1,0.1,0.2
		c1.6,2.9,2.3,6,2.3,9.3c0,5.5,0,10.9,0,16.4c0,1.6-0.1,3.1-0.6,4.6c-2.2,8.1-9.7,13.9-18.4,13.9c-23.9,0-47.8,0-71.7,0
		c-7.9,0-14.4-4.8-16.9-12.2c-0.8-2.3-1-4.7-0.9-7.2c0-0.7-0.1-1-0.9-0.9c-1.7,0.2-3.4,0.3-5,0.6c-3,0.5-5.9,1.1-8.6,2.6
		c-3.2,1.8-5.5,4.5-7.5,7.5c-1.8,2.7-3.3,5.6-4.9,8.4c-2.3,4.2-5,8.2-8.3,11.6c-0.1,0.1-0.1,0.2-0.2,0.3c0.2,0.1,0.4,0.1,0.5,0.1
		c4.1,0.6,8.1,1.5,12.1,2.6c10.6,2.9,20.5,7.5,29.3,14.2c4.4,3.3,8.5,7,12.7,10.6c6.6,5.6,13.9,10,22.4,12.3
		c9.4,2.6,18.9,3.3,28.6,3.5c0.6,0,0.6-0.3,0.6-0.7c0-1.8,0-3.6,0.4-5.4c1.9-8.6,9.5-14.6,18.3-14.6c18.3,0,36.6,0,54.9,0
		c0.9,0,1-0.3,1-1.1c0-10.1,0-20.2,0-30.4c0-0.3,0-0.7,0-1c0-0.3,0-0.6,0-0.8c0-18.5,0-36.9,0-55.4c0-0.7-0.2-1.1-0.9-1.4
		c-11.9-6.8-23.7-13.7-35.6-20.5c-34.4-19.8-68.8-39.7-103.1-59.5c-0.5-0.3-0.9-0.3-1.4,0c-46.2,26.7-92.4,53.3-138.7,80
		c-0.6,0.3-0.9,0.7-0.9,1.4c0,15.6,0,31.3,0,46.9c0,0.9,0.3,1,1.1,1c18.9,0,37.7,0,56.6,0c3.2,0,6.3,0.7,9.1,2.1
		c3.5,1.8,6.1,4.5,7.9,7.9C174.5,218.2,174.5,218.3,174.5,218.3z M215.3,387.7c0.1,0,0.1,0.1,0.2,0.1c0.1,0.1,0.2,0.2,0.3,0.2
		c7.9,4.6,15.8,9.1,23.7,13.7c0.5,0.3,0.8,0.1,1.2-0.1c46.3-26.7,92.6-53.4,138.9-80.1c0.5-0.3,0.7-0.6,0.7-1.2c0-5.6,0-11.3,0-16.9
		c0-0.7-0.2-0.9-0.9-0.9c-8.3,0-16.6,0-24.8,0c-10.1,0-20.3,0.1-30.4,0c-7.3-0.1-12.9-3.4-16.5-9.9c-1.7-3.1-2.1-6.5-2-10
		c0-0.7-0.1-1-0.9-1c-8.9-0.2-17.8-1-26.5-3c-9.6-2.2-18.5-6-26.7-11.6c-4.9-3.4-9.4-7.3-13.9-11.3c-9.1-8.2-19.5-13.7-31.5-16.2
		c-9.6-2-19.4-2.8-29.2-3c-0.6,0-0.6,0.2-0.6,0.7c0,2.1,0,4.2,0,6.3c0,3.1-0.8,6-2.5,8.7c-3.9,6.1-9.5,9.1-16.7,9.1
		c-18.8,0-37.6,0-56.4,0c-0.3,0-0.7-0.3-1,0.2c0,0.3,0,0.6,0,0.9c0,19.2,0,38.4,0,57.7c0,0.8,0.3,1.1,0.9,1.5
		c32.2,18.6,64.4,37.1,96.6,55.7C203.2,380.8,209.2,384.2,215.3,387.7L215.3,387.7z M288.7,203c10.8,0,21.6,0,32.4,0
		c1.3,0,2.7,0,4,0c3-0.1,5.4-2.3,5.4-5.3c0.1-6.1,0.1-12.2,0-18.2c0-2.5-1.6-4.4-4-5c-0.7-0.2-1.5-0.2-2.3-0.2c-23.7,0-47.3,0-71,0
		c-0.3,0-0.6,0-0.9,0c-3.4,0.2-5.7,2.4-5.7,5.6c0,5.9,0,11.7,0,17.6c0,2.6,1.5,4.6,4,5.4c0.8,0.3,1.7,0.3,2.5,0.3
		C264.9,203,276.8,203,288.7,203z M129.3,248.8C129.3,248.8,129.3,248.8,129.3,248.8c9.6,0,19.2,0,28.7,0c3.2,0,5.5-2.2,5.6-5.4
		c0.1-6,0.1-12,0-18.1c0-3.6-2.6-5.9-6.1-5.9c-19,0-37.9,0-56.9,0c-0.7,0-0.8,0.2-0.8,0.8c0,9.2,0,18.4,0,27.6
		c0,0.7,0.1,0.9,0.9,0.9C110.2,248.8,119.8,248.8,129.3,248.8z M351.5,261.3c-8.9,0-17.9,0-26.8,0c-0.5,0-1.1,0-1.6,0.1
		c-2.7,0.3-4.9,2.6-5,5.3c0,0.2,0,0.5,0,0.7c0,5.6,0,11.3,0,16.9c0,2.8,1.4,4.8,3.9,5.6c0.8,0.3,1.7,0.3,2.5,0.3
		c18.3,0,36.6,0,54.9,0c0.7,0,0.9-0.2,0.9-0.9c0-9,0-18,0-27.1c0-0.7-0.2-0.9-0.9-0.9C370.1,261.3,360.8,261.3,351.5,261.3z"/>
	<g>
		<path class="st6" d="M380.3,303.4c0-0.7-0.2-0.9-0.9-0.9c-8.3,0-16.6,0-24.8,0c-10.1,0-20.3,0.1-30.4,0
			c-7.3-0.1-12.9-3.4-16.5-9.9c-1.7-3.1-2.1-6.5-2-10c0-0.7-0.1-1-0.9-1c-8.9-0.2-17.8-1-26.5-3c-9.6-2.2-18.5-6-26.7-11.6
			c-4.9-3.4-9.4-7.3-13.9-11.3c-9.1-8.2-19.5-13.7-31.5-16.2c-9.6-2-19.4-2.8-29.2-3c-0.6,0-0.6,0.2-0.6,0.7c0,2.1,0,4.2,0,6.3
			c0,3.1-0.8,6-2.5,8.7c-3.9,6.1-9.5,9.1-16.7,9.1c-18.8,0-37.6,0-56.4,0c-0.3,0-0.7-0.3-1,0.2c1.1,0.8,1.9,2,2.8,3
			c0.9,1,1.8,1.9,2.6,2.9c2.2,2.5,4.5,4.9,6.8,7.3c2.5,2.7,5,5.4,7.5,8.2c1.8,2,3.7,4,5.5,6c3.1,3.4,6.3,6.8,9.4,10.3
			c1.8,2,3.6,4,5.5,6c2.5,2.8,5.1,5.5,7.6,8.3c1.9,2.1,3.8,4.1,5.7,6.2c3.1,3.4,6.3,6.8,9.4,10.3c1.8,2,3.6,4,5.5,6
			c2.5,2.8,5.1,5.5,7.6,8.3c1.8,2,3.6,4,5.4,5.9c2.6,2.8,5.1,5.6,7.7,8.3c1.8,2,3.6,4,5.4,5.9c3.2,3.5,6.4,7,9.7,10.5
			c1.8,2,3.7,4,5.5,6c1.9,2.1,3.8,4.1,5.7,6.2c0.2,0.2,0.4,0.4,0.2,0.7c0,0,0.1,0,0.1,0c0.1-0.1,0.2,0,0.2,0.1
			c0.1,0.1,0.2,0.2,0.3,0.2c7.9,4.6,15.8,9.1,23.7,13.7c0.5,0.3,0.8,0.1,1.2-0.1c46.3-26.7,92.6-53.4,138.9-80.1
			c0.5-0.3,0.7-0.6,0.7-1.2C380.2,314.7,380.2,309,380.3,303.4z"/>
		<path class="st6" d="M212.1,229c10.6,2.9,20.5,7.5,29.3,14.2c4.4,3.3,8.5,7,12.7,10.6c6.6,5.6,13.9,10,22.4,12.3
			c9.4,2.6,18.9,3.3,28.6,3.5c0.6,0,0.6-0.3,0.6-0.7c0-1.8,0-3.6,0.4-5.4c1.9-8.6,9.5-14.6,18.3-14.6c18.3,0,36.6,0,54.9,0
			c0.9,0,1-0.3,1-1.1c0-10.1,0-20.2,0-30.4c0-0.3,0-0.7,0-1c-0.3-0.2-0.6-0.5-0.8-0.8c-0.9-1-1.8-2.1-2.7-3.1
			c-1.4-1.7-2.9-3.3-4.3-5c-1.8-2.1-3.6-4.2-5.3-6.3c-1.4-1.7-2.9-3.4-4.3-5.1c-1.8-2.1-3.6-4.3-5.5-6.4c-1.5-1.7-2.9-3.4-4.4-5.1
			c-1.8-2.1-3.5-4.2-5.3-6.2c-1.5-1.8-2.9-3.6-4.5-5.3c-0.6-0.6-0.9-1.6-1.9-1.8c1.6,2.9,2.3,6,2.3,9.3c0,5.5,0,10.9,0,16.4
			c0,1.6-0.1,3.1-0.6,4.6c-2.2,8.1-9.7,13.9-18.4,13.9c-23.9,0-47.8,0-71.7,0c-7.9,0-14.4-4.8-16.9-12.2c-0.8-2.3-1-4.7-0.9-7.2
			c0-0.7-0.1-1-0.9-0.9c-1.7,0.2-3.4,0.3-5,0.6c-3,0.5-5.9,1.1-8.6,2.6c-3.2,1.8-5.5,4.5-7.5,7.5c-1.8,2.7-3.3,5.6-4.9,8.4
			c-2.3,4.2-5,8.2-8.3,11.6c-0.1,0.1-0.1,0.2-0.2,0.3c0.2,0.1,0.4,0.1,0.5,0.1C204.1,227,208.2,227.9,212.1,229z"/>
	</g>
	<g>
		<path class="st7" d="M375.6,135.6c-45-26-89.9-52-134.9-78.1c-0.2-0.1-0.4-0.3-0.6-0.4c-0.1,0-0.1,0-0.2,0
			c-0.2,0.2-0.5,0.3-0.7,0.5C187,87.8,134.8,118,82.5,148.2c-0.7,0.4-0.9,0.8-0.9,1.5c0,60.3,0,120.6,0,180.9c0,0.7,0.2,1.1,0.9,1.5
			c26.7,15.4,53.4,30.8,80,46.2c25.6,14.8,51.2,29.6,76.8,44.4c0.4,0.3,0.8,0.3,1.3,0c15.7-9.1,31.5-18.2,47.2-27.3
			c36.6-21.1,73.2-42.3,109.8-63.4c0.2-0.1,0.4-0.4,0.7-0.3c0-61,0-122,0-183C390.8,144.3,383.2,140,375.6,135.6z M385.9,321.9
			c0,1.7-0.6,2.7-2,3.6c-47.3,27.3-94.5,54.6-141.8,81.9c-1.5,0.8-2.7,0.8-4.2,0c-35.7-20.6-71.5-41.2-107.2-61.8
			c-11.6-6.7-23.2-13.4-34.8-20c-1.4-0.8-2-1.9-2-3.4c0-27.3,0-54.6,0-81.9c0-27.2,0-54.3,0-81.5c0-1.9,0.7-3,2.3-3.9
			c40.2-23.1,80.3-46.3,120.5-69.4c7.1-4.1,14.2-8.2,21.3-12.3c1.5-0.8,2.7-0.7,4.1,0.1c26.6,15.4,53.2,30.7,79.8,46.1
			c20.6,11.9,41.3,23.8,61.9,35.7c1.5,0.8,2.1,1.9,2.1,3.6C385.9,212.9,385.9,267.4,385.9,321.9z"/>
		<path class="st7" d="M292,161.7c11.1,0,22.1,0,33.2,0c2.7,0,5.2,0.7,7.6,1.8c3.3,1.5,5.8,3.8,7.9,6.7c0.2,0.1,0.2,0.2,0.2,0.3
			c0,0.1,0.1,0.1,0.1,0.2c0.2,0.1,0.2,0.2,0.2,0.3c0,0.1,0.1,0.1,0.1,0.2c1,0.2,1.3,1.2,1.9,1.8c1.6,1.7,3,3.5,4.5,5.3
			c1.8,2.1,3.5,4.2,5.3,6.2c1.5,1.7,2.9,3.4,4.4,5.1c1.8,2.1,3.6,4.3,5.5,6.4c1.4,1.7,2.9,3.4,4.3,5.1c1.8,2.1,3.6,4.2,5.3,6.3
			c1.4,1.7,2.9,3.3,4.3,5c0.9,1,1.8,2.1,2.7,3.1c0.2,0.3,0.5,0.6,0.8,0.8c0-0.3,0-0.6,0-0.8c0-18.5,0-36.9,0-55.4
			c0-0.7-0.2-1.1-0.9-1.4c-11.9-6.8-23.7-13.7-35.6-20.5c-34.4-19.8-68.8-39.7-103.1-59.5c-0.5-0.3-0.9-0.3-1.4,0
			c-46.2,26.7-92.4,53.3-138.7,80c-0.6,0.3-0.9,0.7-0.9,1.4c0,15.6,0,31.3,0,46.9c0,0.9,0.3,1,1.1,1c18.9,0,37.7,0,56.6,0
			c3.2,0,6.3,0.7,9.1,2.1c3.5,1.8,6.1,4.5,7.9,7.9c0.1,0,0.1,0.1,0.1,0.2c0,0,0,0,0,0c1,0.6,1.3,1.7,2,2.5c0.7,0.8,1.2,1.7,1.8,2.6
			c0.3,0,0.7-0.1,1-0.2c4-0.8,7.8-2.2,10.8-5c2.6-2.4,4.4-5.3,6.1-8.3c2.4-4,4.4-8.3,7.1-12.1c4.5-6.4,10.2-11.1,18-13.1
			c4.1-1.1,8.4-1.7,12.6-1.9c0.8,0,1.1-0.3,1-1.1c-0.1-0.9,0-1.8,0-2.6c0.1-9.7,7.7-17.5,17.5-17.5
			C265.6,161.7,278.8,161.7,292,161.7z"/>
		<path class="st7" d="M209.4,380.8c-1.8-2-3.6-4-5.5-6c-3.2-3.5-6.4-7-9.7-10.5c-1.8-2-3.6-3.9-5.4-5.9c-2.6-2.8-5.1-5.6-7.7-8.3
			c-1.8-2-3.6-3.9-5.4-5.9c-2.5-2.8-5.1-5.5-7.6-8.3c-1.8-2-3.6-4-5.5-6c-3.1-3.4-6.3-6.8-9.4-10.3c-1.9-2.1-3.8-4.1-5.7-6.2
			c-2.5-2.8-5.1-5.5-7.6-8.3c-1.8-2-3.6-4-5.5-6c-3.1-3.4-6.3-6.8-9.4-10.3c-1.8-2-3.7-4-5.5-6c-2.5-2.7-5-5.4-7.5-8.2
			c-2.3-2.4-4.6-4.8-6.8-7.3c-0.9-1-1.8-1.9-2.6-2.9c-0.9-1-1.7-2.2-2.8-3c0,0.3,0,0.6,0,0.9c0,19.2,0,38.4,0,57.7
			c0,0.8,0.3,1.1,0.9,1.5c32.2,18.6,64.4,37.1,96.6,55.7c6,3.5,12,6.9,18,10.3c0.2-0.3,0-0.5-0.2-0.7
			C213.1,384.9,211.2,382.9,209.4,380.8z"/>
		<path class="st7" d="M325.1,203c3-0.1,5.4-2.3,5.4-5.3c0.1-6.1,0.1-12.2,0-18.2c0-2.5-1.6-4.4-4-5c-0.7-0.2-1.5-0.2-2.3-0.2
			c-23.7,0-47.3,0-71,0c-0.3,0-0.6,0-0.9,0c-3.4,0.2-5.7,2.4-5.7,5.6c0,5.9,0,11.7,0,17.6c0,2.6,1.5,4.6,4,5.4
			c0.8,0.3,1.7,0.3,2.5,0.3c11.9,0,23.7,0,35.6,0c10.8,0,21.6,0,32.4,0C322.4,203,323.7,203,325.1,203z"/>
		<path class="st7" d="M100.7,248.8c9.6,0,19.1,0,28.7,0c0,0,0,0,0,0c9.6,0,19.2,0,28.7,0c3.2,0,5.5-2.2,5.6-5.4
			c0.1-6,0.1-12,0-18.1c0-3.6-2.6-5.9-6.1-5.9c-19,0-37.9,0-56.9,0c-0.7,0-0.8,0.2-0.8,0.8c0,9.2,0,18.4,0,27.6
			C99.8,248.6,99.9,248.8,100.7,248.8z"/>
		<path class="st7" d="M379.3,261.3c-9.3,0-18.5,0-27.8,0c-8.9,0-17.9,0-26.8,0c-0.5,0-1.1,0-1.6,0.1c-2.7,0.3-4.9,2.6-5,5.3
			c0,0.2,0,0.5,0,0.7c0,5.6,0,11.3,0,16.9c0,2.8,1.4,4.8,3.9,5.6c0.8,0.3,1.7,0.3,2.5,0.3c18.3,0,36.6,0,54.9,0
			c0.7,0,0.9-0.2,0.9-0.9c0-9,0-18,0-27.1C380.3,261.5,380.1,261.3,379.3,261.3z"/>
	</g>
	<path class="st8" d="M174.5,218.4c1,0.6,1.3,1.7,2,2.5c0.7,0.8,1.2,1.7,1.8,2.6c-0.7,0.1-1.5,0.5-2.1,0.3c-0.7-0.2-0.4-1.2-0.6-1.8
		C175.4,220.7,175,219.5,174.5,218.4z"/>
	<path class="st8" d="M174.4,218.1c0.1,0,0.1,0.1,0.1,0.2C174.5,218.3,174.5,218.2,174.4,218.1z"/>
</g>
<script  xmlns=""></script>
</svg>
